<mxfile host="app.diagrams.net" modified="2024-03-18T11:09:01.764Z" agent="Mozilla/5.0 (Windows NT 10.0; Win64; x64; rv:123.0) Gecko/20100101 Firefox/123.0" etag="fz3Y7HPtVKNV9hH3l8w6" version="24.0.7" type="github">
  <diagram id="C5RBs43oDa-KdzZeNtuy" name="Transportation">
    <mxGraphModel dx="1235" dy="656" grid="1" gridSize="10" guides="1" tooltips="1" connect="1" arrows="1" fold="1" page="1" pageScale="1" pageWidth="827" pageHeight="1169" math="0" shadow="0">
      <root>
        <mxCell id="WIyWlLk6GJQsqaUBKTNV-0" />
        <mxCell id="WIyWlLk6GJQsqaUBKTNV-1" parent="WIyWlLk6GJQsqaUBKTNV-0" />
        <mxCell id="5rwLU-44O9xkTZFINnu5-1" value="" style="edgeStyle=orthogonalEdgeStyle;rounded=0;orthogonalLoop=1;jettySize=auto;html=1;" edge="1" parent="WIyWlLk6GJQsqaUBKTNV-1" source="WIyWlLk6GJQsqaUBKTNV-3" target="5rwLU-44O9xkTZFINnu5-0">
          <mxGeometry relative="1" as="geometry" />
        </mxCell>
        <mxCell id="WIyWlLk6GJQsqaUBKTNV-3" value="Add New Request" style="rounded=1;whiteSpace=wrap;html=1;fontSize=12;glass=0;strokeWidth=1;shadow=0;" parent="WIyWlLk6GJQsqaUBKTNV-1" vertex="1">
          <mxGeometry x="10" y="30" width="120" height="40" as="geometry" />
        </mxCell>
        <mxCell id="5rwLU-44O9xkTZFINnu5-9" value="" style="edgeStyle=orthogonalEdgeStyle;rounded=0;orthogonalLoop=1;jettySize=auto;html=1;" edge="1" parent="WIyWlLk6GJQsqaUBKTNV-1" source="5rwLU-44O9xkTZFINnu5-0" target="5rwLU-44O9xkTZFINnu5-8">
          <mxGeometry relative="1" as="geometry" />
        </mxCell>
        <mxCell id="5rwLU-44O9xkTZFINnu5-0" value="Add All trips In This Request" style="whiteSpace=wrap;html=1;rounded=1;glass=0;strokeWidth=1;shadow=0;" vertex="1" parent="WIyWlLk6GJQsqaUBKTNV-1">
          <mxGeometry x="160" y="20" width="120" height="60" as="geometry" />
        </mxCell>
        <mxCell id="5rwLU-44O9xkTZFINnu5-11" value="" style="edgeStyle=orthogonalEdgeStyle;rounded=0;orthogonalLoop=1;jettySize=auto;html=1;" edge="1" parent="WIyWlLk6GJQsqaUBKTNV-1" source="5rwLU-44O9xkTZFINnu5-8" target="5rwLU-44O9xkTZFINnu5-10">
          <mxGeometry relative="1" as="geometry" />
        </mxCell>
        <mxCell id="5rwLU-44O9xkTZFINnu5-8" value="&lt;div&gt;Add,Edit and Delete&lt;br&gt;trips in request&lt;br&gt;&lt;/div&gt;" style="shape=parallelogram;perimeter=parallelogramPerimeter;whiteSpace=wrap;html=1;fixedSize=1;rounded=1;glass=0;strokeWidth=1;shadow=0;" vertex="1" parent="WIyWlLk6GJQsqaUBKTNV-1">
          <mxGeometry x="317" y="20" width="146" height="60" as="geometry" />
        </mxCell>
        <mxCell id="5rwLU-44O9xkTZFINnu5-13" value="" style="edgeStyle=orthogonalEdgeStyle;rounded=0;orthogonalLoop=1;jettySize=auto;html=1;" edge="1" parent="WIyWlLk6GJQsqaUBKTNV-1" source="5rwLU-44O9xkTZFINnu5-10" target="5rwLU-44O9xkTZFINnu5-12">
          <mxGeometry relative="1" as="geometry" />
        </mxCell>
        <mxCell id="5rwLU-44O9xkTZFINnu5-14" value="YES" style="edgeLabel;html=1;align=center;verticalAlign=middle;resizable=0;points=[];" vertex="1" connectable="0" parent="5rwLU-44O9xkTZFINnu5-13">
          <mxGeometry x="-0.0267" y="-2" relative="1" as="geometry">
            <mxPoint as="offset" />
          </mxGeometry>
        </mxCell>
        <mxCell id="5rwLU-44O9xkTZFINnu5-18" value="" style="edgeStyle=orthogonalEdgeStyle;rounded=0;orthogonalLoop=1;jettySize=auto;html=1;" edge="1" parent="WIyWlLk6GJQsqaUBKTNV-1" source="5rwLU-44O9xkTZFINnu5-10" target="5rwLU-44O9xkTZFINnu5-17">
          <mxGeometry relative="1" as="geometry" />
        </mxCell>
        <mxCell id="5rwLU-44O9xkTZFINnu5-10" value="He Has Manager" style="rhombus;whiteSpace=wrap;html=1;rounded=1;glass=0;strokeWidth=1;shadow=0;" vertex="1" parent="WIyWlLk6GJQsqaUBKTNV-1">
          <mxGeometry x="350" y="150" width="80" height="80" as="geometry" />
        </mxCell>
        <mxCell id="5rwLU-44O9xkTZFINnu5-16" value="" style="edgeStyle=orthogonalEdgeStyle;rounded=0;orthogonalLoop=1;jettySize=auto;html=1;" edge="1" parent="WIyWlLk6GJQsqaUBKTNV-1" source="5rwLU-44O9xkTZFINnu5-12" target="5rwLU-44O9xkTZFINnu5-15">
          <mxGeometry relative="1" as="geometry" />
        </mxCell>
        <mxCell id="5rwLU-44O9xkTZFINnu5-12" value="Create Approval Request And Notify Managers and ..etc" style="whiteSpace=wrap;html=1;rounded=1;glass=0;strokeWidth=1;shadow=0;" vertex="1" parent="WIyWlLk6GJQsqaUBKTNV-1">
          <mxGeometry x="490" y="160" width="120" height="60" as="geometry" />
        </mxCell>
        <mxCell id="5rwLU-44O9xkTZFINnu5-21" style="edgeStyle=orthogonalEdgeStyle;rounded=0;orthogonalLoop=1;jettySize=auto;html=1;entryX=1;entryY=0.5;entryDx=0;entryDy=0;exitX=0.5;exitY=1;exitDx=0;exitDy=0;" edge="1" parent="WIyWlLk6GJQsqaUBKTNV-1" source="5rwLU-44O9xkTZFINnu5-15" target="5rwLU-44O9xkTZFINnu5-19">
          <mxGeometry relative="1" as="geometry" />
        </mxCell>
        <mxCell id="5rwLU-44O9xkTZFINnu5-22" value="&lt;div&gt;Approved&lt;/div&gt;&lt;div&gt;&lt;br&gt;&lt;/div&gt;" style="edgeLabel;html=1;align=center;verticalAlign=middle;resizable=0;points=[];" vertex="1" connectable="0" parent="5rwLU-44O9xkTZFINnu5-21">
          <mxGeometry x="-0.3265" y="2" relative="1" as="geometry">
            <mxPoint as="offset" />
          </mxGeometry>
        </mxCell>
        <mxCell id="5rwLU-44O9xkTZFINnu5-23" style="edgeStyle=orthogonalEdgeStyle;rounded=0;orthogonalLoop=1;jettySize=auto;html=1;entryX=1;entryY=0.5;entryDx=0;entryDy=0;exitX=0.5;exitY=0;exitDx=0;exitDy=0;" edge="1" parent="WIyWlLk6GJQsqaUBKTNV-1" source="5rwLU-44O9xkTZFINnu5-15" target="5rwLU-44O9xkTZFINnu5-8">
          <mxGeometry relative="1" as="geometry">
            <Array as="points">
              <mxPoint x="670" y="50" />
            </Array>
          </mxGeometry>
        </mxCell>
        <mxCell id="5rwLU-44O9xkTZFINnu5-24" value="&lt;div&gt;Return To Employee For Modify Request&lt;/div&gt;&lt;div&gt;&lt;br&gt;&lt;/div&gt;" style="edgeLabel;html=1;align=center;verticalAlign=middle;resizable=0;points=[];" vertex="1" connectable="0" parent="5rwLU-44O9xkTZFINnu5-23">
          <mxGeometry x="-0.2134" relative="1" as="geometry">
            <mxPoint x="-85" y="10" as="offset" />
          </mxGeometry>
        </mxCell>
        <mxCell id="5rwLU-44O9xkTZFINnu5-26" value="" style="edgeStyle=orthogonalEdgeStyle;rounded=0;orthogonalLoop=1;jettySize=auto;html=1;exitX=1;exitY=0.5;exitDx=0;exitDy=0;" edge="1" parent="WIyWlLk6GJQsqaUBKTNV-1" source="5rwLU-44O9xkTZFINnu5-15" target="5rwLU-44O9xkTZFINnu5-25">
          <mxGeometry relative="1" as="geometry" />
        </mxCell>
        <mxCell id="5rwLU-44O9xkTZFINnu5-27" value="Rejected" style="edgeLabel;html=1;align=center;verticalAlign=middle;resizable=0;points=[];" vertex="1" connectable="0" parent="5rwLU-44O9xkTZFINnu5-26">
          <mxGeometry x="-0.0293" y="2" relative="1" as="geometry">
            <mxPoint as="offset" />
          </mxGeometry>
        </mxCell>
        <mxCell id="5rwLU-44O9xkTZFINnu5-15" value="Manager Action" style="rhombus;whiteSpace=wrap;html=1;rounded=1;glass=0;strokeWidth=1;shadow=0;" vertex="1" parent="WIyWlLk6GJQsqaUBKTNV-1">
          <mxGeometry x="630" y="150" width="80" height="80" as="geometry" />
        </mxCell>
        <mxCell id="5rwLU-44O9xkTZFINnu5-20" value="" style="edgeStyle=orthogonalEdgeStyle;rounded=0;orthogonalLoop=1;jettySize=auto;html=1;exitX=0;exitY=0.5;exitDx=0;exitDy=0;entryX=0;entryY=0.5;entryDx=0;entryDy=0;" edge="1" parent="WIyWlLk6GJQsqaUBKTNV-1" source="5rwLU-44O9xkTZFINnu5-17" target="5rwLU-44O9xkTZFINnu5-19">
          <mxGeometry relative="1" as="geometry" />
        </mxCell>
        <mxCell id="5rwLU-44O9xkTZFINnu5-17" value="Change Request Status To (Approved) " style="whiteSpace=wrap;html=1;rounded=1;glass=0;strokeWidth=1;shadow=0;" vertex="1" parent="WIyWlLk6GJQsqaUBKTNV-1">
          <mxGeometry x="170" y="160" width="120" height="60" as="geometry" />
        </mxCell>
        <mxCell id="5rwLU-44O9xkTZFINnu5-19" value="Send Request To Financial" style="whiteSpace=wrap;html=1;rounded=1;glass=0;strokeWidth=1;shadow=0;" vertex="1" parent="WIyWlLk6GJQsqaUBKTNV-1">
          <mxGeometry x="330" y="360" width="120" height="60" as="geometry" />
        </mxCell>
        <mxCell id="5rwLU-44O9xkTZFINnu5-25" value="End " style="whiteSpace=wrap;html=1;rounded=1;glass=0;strokeWidth=1;shadow=0;" vertex="1" parent="WIyWlLk6GJQsqaUBKTNV-1">
          <mxGeometry x="690" y="240" width="120" height="60" as="geometry" />
        </mxCell>
      </root>
    </mxGraphModel>
  </diagram>
</mxfile>
